<?xml version="1.0" encoding="UTF-8"?>
<svg width="24px" height="24px" viewBox="0 0 24 24" version="1.1" xmlns="http://www.w3.org/2000/svg" xmlns:xlink="http://www.w3.org/1999/xlink">
    <!-- Generator: Sketch 44.1 (41455) - http://www.bohemiancoding.com/sketch -->
    <title>icon-calendar</title>
    <desc>Created with Sketch.</desc>
    <defs></defs>
    <g id="FINAL-EXPORT" stroke="none" stroke-width="1" fill="none" fill-rule="evenodd">
        <g id="Icones" transform="translate(-432.000000, -168.000000)" fill="#000000">
            <g id="icon-calendar" transform="translate(432.000000, 168.000000)">
                <path d="M16,5 L16.993,5 C18.649,5 20,6.335 20,7.996 L20,16.004 C20,17.664 18.65,19 16.993,19 L7.007,19 C5.351,19 4,17.665 4,16.004 L4,7.996 C4,6.336 5.35,5 7.007,5 L8,5 L8,4 L10,4 L10,5 L14,5 L14,4 L16,4 L16,5 Z M18,16.004 L18,11 L6,11 L6,16.004 C6,16.555 6.451,17 7.007,17 L16.993,17 C17.55,17 18,16.554 18,16.004 Z M18,9 L18,7.996 C18,7.445 17.549,7 16.993,7 L7.007,7 C6.45,7 6,7.446 6,7.996 L6,9 L18,9 Z M14,15 L14,13 L16,13 L16,15 L14,15 Z" id="icon"></path>
            </g>
        </g>
    </g>
</svg>